<svg width="36" height="66" viewBox="0 0 36 66" fill="none" xmlns="http://www.w3.org/2000/svg">
<path d="M26.6256 21H9.37438C5.43969 21 2.25 24.1897 2.25 28.1244V29.1576C2.25 30.2673 2.66412 31.3371 3.41131 32.1575L4.22127 33.0469C5.57198 34.53 5.33827 36.8569 3.71962 38.0418C1.87797 39.39 1.87797 42.1394 3.71961 43.4876C5.33827 44.6725 5.57197 46.9994 4.22127 48.4825L3.4113 49.3719C2.66412 50.1923 2.25 51.2621 2.25 52.3718V54.0945C2.25 59.0129 6.23712 63 11.1555 63H24.8445C29.7629 63 33.75 59.0129 33.75 54.0945V52.3718C33.75 51.2621 33.3359 50.1923 32.5887 49.3719L31.7787 48.4825C30.428 46.9994 30.6617 44.6725 32.2804 43.4876C34.122 42.1394 34.122 39.39 32.2804 38.0419C30.6617 36.8569 30.428 34.53 31.7787 33.0469L32.5887 32.1575C33.3359 31.3371 33.75 30.2673 33.75 29.1576V28.1244C33.75 24.1897 30.5603 21 26.6256 21Z" stroke="#BBF246" stroke-width="4.5" stroke-linecap="round" stroke-linejoin="round"/>
<path d="M6 21C6 16.0294 10.0294 12 15 12H21C25.9706 12 30 16.0294 30 21V21H6V21Z" stroke="#BBF246" stroke-width="4.5"/>
<path d="M12 6C12 4.34315 13.3431 3 15 3H21C22.6569 3 24 4.34315 24 6V9C24 10.6569 22.6569 12 21 12H15C13.3431 12 12 10.6569 12 9V6Z" stroke="#BBF246" stroke-width="4.5"/>
</svg>
